<?xml version="1.0" standalone="no"?>
<!DOCTYPE svg PUBLIC "-//W3C//DTD SVG 20010904//EN"
 "http://www.w3.org/TR/2001/REC-SVG-20010904/DTD/svg10.dtd">
<svg version="1.0" xmlns="http://www.w3.org/2000/svg"
 width="1000.000000pt" height="1000.000000pt" viewBox="0 0 1000.000000 1000.000000"
 preserveAspectRatio="xMidYMid meet">
<metadata>
Created by potrace 1.14, written by Peter Selinger 2001-2017
</metadata>
<g transform="translate(0.000000,1000.000000) scale(0.100000,-0.100000)"
fill="#000000" stroke="none">
<path d="M7568 6895 c-2 -1 -41 -5 -88 -8 -263 -18 -508 -99 -713 -234 -87
-57 -223 -186 -287 -272 -142 -187 -237 -464 -256 -743 -9 -130 -10 -1068 -1
-1204 44 -674 443 -1125 1094 -1238 144 -26 465 -34 583 -15 153 24 203 34
275 55 249 74 456 214 607 411 120 155 220 408 243 608 12 111 14 137 17 232
l3 98 -334 0 -334 0 -2 -100 c-1 -55 -8 -125 -14 -155 -6 -30 -13 -65 -16 -77
-8 -47 -86 -196 -131 -254 -125 -158 -317 -232 -584 -224 -393 11 -644 227
-726 625 -4 19 -9 287 -11 595 -3 557 -1 603 33 763 21 100 102 240 188 327
99 100 227 166 366 192 57 10 300 10 363 0 196 -32 360 -155 449 -337 52 -106
77 -204 83 -330 2 -47 4 -88 4 -91 1 -4 644 -5 662 0 13 3 -10 273 -35 398
-46 228 -160 445 -323 608 -93 94 -121 116 -254 198 -88 54 -320 130 -460 151
-95 14 -391 30 -401 21z"/>
<path d="M1079 6805 c0 -11 -1 -816 -2 -1790 l0 -1770 333 -3 c195 -1 336 2
339 7 3 5 6 309 5 675 l-1 667 521 -3 c518 -3 521 -3 567 -26 53 -26 102 -88
119 -151 8 -31 12 -207 11 -607 l0 -564 340 0 340 0 -1 623 c-1 575 -3 630
-20 699 -47 188 -175 306 -358 332 -56 7 -58 9 -56 43 1 15 3 35 3 43 1 8 21
23 46 33 168 70 356 263 425 437 47 118 60 211 56 405 -2 157 -6 192 -29 277
-85 311 -316 534 -657 634 -47 14 -98 27 -115 30 -16 2 -41 6 -55 9 -77 16
-209 18 -973 19 -830 1 -837 1 -838 -19z m1643 -615 c96 -24 147 -50 205 -103
105 -97 145 -197 146 -362 0 -129 -5 -165 -33 -236 -55 -137 -178 -237 -335
-269 -42 -9 -190 -13 -485 -14 -234 -1 -434 0 -446 2 -21 4 -21 5 -21 503 l1
499 445 0 c408 0 453 -2 523 -20z"/>
<path d="M5400 6815 c-6 -8 -62 -167 -65 -185 0 -3 -24 -75 -52 -160 -28 -85
-108 -330 -178 -545 -70 -214 -151 -462 -180 -550 -29 -88 -109 -333 -178
-545 -69 -212 -152 -464 -183 -560 -32 -96 -59 -177 -59 -180 -1 -5 -168 -517
-245 -750 -26 -80 -75 -228 -108 -330 -33 -102 -97 -297 -142 -435 -45 -137
-90 -275 -99 -305 l-17 -55 321 0 322 0 21 60 c11 33 78 236 147 450 187 574
483 1482 504 1545 11 30 76 231 146 445 70 215 167 514 217 665 49 151 126
385 170 520 44 135 97 297 118 360 149 455 180 553 175 558 -10 11 -626 8
-635 -3z"/>
</g>
</svg>
